<?xml version="1.0" encoding="utf-8"?>
<svg xmlns="http://www.w3.org/2000/svg" version="1.1" viewBox="0 0 200 200">
  <g>
    <g fill="#00f7ff" transform="matrix(6.4353591160220995,0,0,6.4353591160220995,2.0861645265178765,145.75477904061586)" stroke="#00f7ff" stroke-width="0.2">
      <path d="M5.75 0L1.07 0L1.07-14.22L5.65-14.22Q7.54-14.22 9.04-13.36Q10.55-12.51 11.39-10.95Q12.24-9.39 12.25-7.46L12.25-7.46L12.25-6.81Q12.25-4.85 11.42-3.31Q10.60-1.76 9.10-0.88Q7.60-0.01 5.75 0L5.75 0ZM5.65-11.57L4.50-11.57L4.50-2.64L5.69-2.64Q7.17-2.64 7.96-3.69Q8.75-4.74 8.75-6.81L8.75-6.81L8.75-7.42Q8.75-9.48 7.96-10.53Q7.17-11.57 5.65-11.57L5.65-11.57ZM14.00-14.22L18.51-14.22L21.68-4.33L24.84-14.22L29.36-14.22L29.36 0L25.92 0L25.92-3.32L26.25-10.12L22.81 0L20.55 0L17.10-10.13L17.43-3.32L17.43 0L14.00 0L14.00-14.22Z"/>
    </g>
  </g>
</svg>